<svg width="1080" height="1080" viewBox="0 0 1080 1080" fill="none" xmlns="http://www.w3.org/2000/svg">
<rect width="1080" height="1080" rx="540" fill="#0062F7"/>
<path d="M742.093 749.092L742.111 749.043L742.126 748.993L822.793 489.515C822.796 489.506 822.799 489.498 822.801 489.49C831.176 464.629 816.131 438.307 791.517 429.999L791.507 429.996C766.549 421.711 740.214 436.748 731.903 461.375L731.887 461.42L731.874 461.467L690.764 605.968L585.266 328.382L585.243 328.322L585.217 328.264C577.004 310.196 558.928 298.651 540.636 298.651C520.827 298.651 504.252 310.23 496.055 328.264L496.029 328.322L496.006 328.382L390.458 606.098L308.21 331.678L308.201 331.649L308.191 331.62C299.98 306.987 273.54 291.947 248.679 300.335C223.95 308.546 209.018 334.877 217.29 359.728C217.292 359.734 217.294 359.74 217.296 359.746L339.234 748.962C344.249 767.276 362.441 780.358 382.169 781.993L382.251 782H382.334H383.914C403.729 782 420.198 770.416 428.491 752.395L428.516 752.342L428.537 752.288L540.637 465.919L652.825 752.267C659.498 770.58 679.324 782 699.036 782H699.12L699.202 781.993C718.969 780.346 735.416 767.171 742.093 749.092Z" fill="white" stroke="white" stroke-width="4"/>
<path d="M817.737 393.313C844.498 393.313 866.158 371.653 866.158 344.893C866.158 319.751 844.437 298.151 817.737 298.151C791.025 298.151 770.897 319.862 770.897 344.893C770.897 371.541 790.966 393.313 817.737 393.313Z" fill="#FFBE17" stroke="#FFBE17" stroke-width="5"/>
</svg>
